<?xml version="1.0" encoding="UTF-8" standalone="no"?><!DOCTYPE svg PUBLIC "-//W3C//DTD SVG 1.1//EN" "http://www.w3.org/Graphics/SVG/1.1/DTD/svg11.dtd"><svg width="100%" height="100%" viewBox="0 0 5000 7084" version="1.1" xmlns="http://www.w3.org/2000/svg" xmlns:xlink="http://www.w3.org/1999/xlink" xml:space="preserve" xmlns:serif="http://www.serif.com/" style="fill-rule:evenodd;clip-rule:evenodd;"><path d="M1718.84,552.254l1492.82,0c31.242,0 49.987,0 62.484,5.221c18.015,6.554 32.207,20.746 38.763,38.763c5.217,12.496 5.217,31.242 5.217,62.483l0,251.371c0,31.246 0,49.988 -5.217,62.488c-6.557,18.012 -20.748,32.204 -38.763,38.762c-12.497,5.217 -31.242,5.217 -62.484,5.217l-1492.82,0c-31.242,0 -49.987,0 -62.483,-5.217c-18.015,-6.558 -32.207,-20.75 -38.763,-38.762c-5.218,-12.5 -5.218,-31.242 -5.218,-62.488l0,-251.371c0,-31.242 0,-49.987 5.218,-62.483c6.557,-18.017 20.748,-32.208 38.763,-38.763c12.497,-5.221 31.242,-5.221 62.483,-5.221Z" style="fill:#ed220d;fill-rule:nonzero;"/><path d="M1718.84,1221.283l1492.82,0c31.242,0 49.987,0 62.484,5.217c18.015,6.558 32.207,20.75 38.763,38.762c5.217,12.5 5.217,31.242 5.217,62.483l0,251.375c0,31.242 0,49.988 -5.217,62.483c-6.557,18.017 -20.748,32.208 -38.763,38.763c-12.497,5.217 -31.242,5.217 -62.484,5.217l-1492.82,0c-31.242,0 -49.987,0 -62.483,-5.217c-18.015,-6.554 -32.207,-20.746 -38.763,-38.763c-5.218,-12.496 -5.218,-31.242 -5.218,-62.483l0,-251.375c0,-31.242 0,-49.983 5.218,-62.483c6.557,-18.012 20.748,-32.204 38.763,-38.762c12.497,-5.217 31.242,-5.217 62.483,-5.217Z" style="fill:#feae00;fill-rule:nonzero;"/><path d="M1725.84,1897.308l1492.82,0c31.242,0 49.987,0 62.484,5.221c18.015,6.554 32.207,20.746 38.763,38.762c5.217,12.496 5.217,31.242 5.217,62.483l0,251.371c0,31.242 0,49.988 -5.217,62.488c-6.557,18.013 -20.748,32.204 -38.763,38.763c-12.497,5.217 -31.242,5.217 -62.484,5.217l-1492.82,0c-31.242,0 -49.987,0 -62.483,-5.217c-18.015,-6.558 -32.207,-20.75 -38.763,-38.763c-5.218,-12.5 -5.218,-31.246 -5.218,-62.488l0,-251.371c0,-31.242 0,-49.988 5.218,-62.483c6.557,-18.017 20.748,-32.208 38.763,-38.762c12.497,-5.221 31.242,-5.221 62.483,-5.221Z" style="fill:#ffd932;fill-rule:nonzero;"/><path d="M1718.84,2559.337l1492.82,0c31.242,0 49.987,0 62.484,5.217c18.015,6.558 32.207,20.75 38.763,38.762c5.217,12.5 5.217,31.242 5.217,62.483l0,251.375c0,31.242 0,49.987 -5.217,62.484c-6.557,18.015 -20.748,32.207 -38.763,38.763c-12.497,5.218 -31.242,5.218 -62.484,5.218l-1492.82,0c-31.242,0 -49.987,0 -62.483,-5.218c-18.015,-6.557 -32.207,-20.748 -38.763,-38.763c-5.218,-12.497 -5.218,-31.242 -5.218,-62.484l0,-251.375c0,-31.242 0,-49.983 5.218,-62.483c6.557,-18.012 20.748,-32.204 38.763,-38.762c12.497,-5.217 31.242,-5.217 62.483,-5.217Z" style="fill:#88fa4e;fill-rule:nonzero;"/><path d="M1718.84,3228.364l1492.82,0c31.242,0 49.987,0 62.484,5.218c18.015,6.557 32.207,20.748 38.763,38.763c5.217,12.497 5.217,31.242 5.217,62.484l0,251.373c0,31.242 0,49.987 -5.217,62.484c-6.557,18.015 -20.748,32.206 -38.763,38.763c-12.497,5.217 -31.242,5.217 -62.484,5.217l-1492.82,0c-31.242,0 -49.987,0 -62.483,-5.217c-18.015,-6.557 -32.207,-20.748 -38.763,-38.763c-5.218,-12.497 -5.218,-31.242 -5.218,-62.484l0,-251.373c0,-31.242 0,-49.987 5.218,-62.484c6.557,-18.015 20.748,-32.207 38.763,-38.763c12.497,-5.218 31.242,-5.218 62.483,-5.218Z" style="fill:#73fdea;fill-rule:nonzero;"/><path d="M2026.404,3897.391l286.836,0c31.242,0 49.987,0 62.484,5.217c18.015,6.557 32.207,20.748 38.763,38.763c5.218,12.497 5.218,31.242 5.218,62.484l0,251.373c0,31.242 0,49.987 -5.218,62.484c-6.557,18.015 -20.748,32.206 -38.763,38.763c-12.497,5.217 -31.242,5.217 -62.484,5.217l-286.836,0c-31.242,0 -49.987,0 -62.484,-5.217c-18.015,-6.557 -32.206,-20.748 -38.763,-38.763c-5.217,-12.497 -5.217,-31.242 -5.217,-62.484l0,-251.373c0,-31.242 0,-49.987 5.217,-62.484c6.557,-18.015 20.748,-32.206 38.763,-38.763c12.497,-5.217 31.242,-5.217 62.484,-5.217Z" style="fill:none;fill-rule:nonzero;stroke:#ff644e;stroke-width:41.67px;"/><path d="M2617.261,3897.391l286.836,0c31.242,0 49.987,0 62.484,5.217c18.015,6.557 32.207,20.748 38.763,38.763c5.218,12.497 5.218,31.242 5.218,62.484l0,251.373c0,31.242 0,49.987 -5.218,62.484c-6.557,18.015 -20.748,32.206 -38.763,38.763c-12.497,5.217 -31.242,5.217 -62.484,5.217l-286.836,0c-31.242,0 -49.987,0 -62.484,-5.217c-18.015,-6.557 -32.206,-20.748 -38.763,-38.763c-5.217,-12.497 -5.217,-31.242 -5.217,-62.484l0,-251.373c0,-31.242 0,-49.987 5.217,-62.484c6.557,-18.015 20.748,-32.206 38.763,-38.763c12.497,-5.217 31.242,-5.217 62.484,-5.217Z" style="fill:none;fill-rule:nonzero;stroke:#1db100;stroke-width:41.67px;"/><path d="M1718.84,4566.418l1492.82,0c31.242,0 49.987,0 62.484,5.217c18.015,6.557 32.207,20.748 38.763,38.763c5.217,12.497 5.217,31.242 5.217,62.484l0,251.373c0,31.242 0,49.987 -5.217,62.484c-6.557,18.015 -20.748,32.207 -38.763,38.763c-12.497,5.217 -31.242,5.217 -62.484,5.217l-1492.82,0c-31.242,0 -49.987,0 -62.483,-5.217c-18.015,-6.557 -32.207,-20.748 -38.763,-38.763c-5.218,-12.497 -5.218,-31.242 -5.218,-62.484l0,-251.373c0,-31.242 0,-49.987 5.218,-62.484c6.557,-18.015 20.748,-32.206 38.763,-38.763c12.497,-5.217 31.242,-5.217 62.483,-5.217Z" style="fill:#56c1ff;fill-rule:nonzero;"/><path d="M807.56,5235.445l1492.82,0c31.242,0 49.987,0 62.484,5.217c18.015,6.557 32.206,20.748 38.763,38.763c5.218,12.497 5.218,31.242 5.218,62.484l0,251.373c0,31.242 0,49.987 -5.218,62.484c-6.557,18.015 -20.748,32.206 -38.763,38.763c-12.497,5.217 -31.242,5.217 -62.484,5.217l-1492.82,0c-31.242,0 -49.987,0 -62.484,-5.217c-18.015,-6.557 -32.206,-20.748 -38.763,-38.763c-5.217,-12.497 -5.217,-31.242 -5.217,-62.484l0,-251.373c0,-31.242 0,-49.987 5.217,-62.484c6.557,-18.015 20.748,-32.206 38.763,-38.763c12.497,-5.217 31.242,-5.217 62.484,-5.217Z" style="fill:#61d836;fill-rule:nonzero;"/><path d="M2630.12,5235.445l1492.82,0c31.242,0 49.988,0 62.484,5.217c18.017,6.557 32.204,20.748 38.762,38.763c5.217,12.497 5.217,31.242 5.217,62.484l0,251.373c0,31.242 0,49.987 -5.217,62.484c-6.558,18.015 -20.746,32.206 -38.762,38.763c-12.496,5.217 -31.242,5.217 -62.484,5.217l-1492.82,0c-31.242,0 -49.987,0 -62.484,-5.217c-18.015,-6.557 -32.206,-20.748 -38.763,-38.763c-5.217,-12.497 -5.217,-31.242 -5.217,-62.484l0,-251.373c0,-31.242 0,-49.987 5.217,-62.484c6.557,-18.015 20.748,-32.206 38.763,-38.763c12.497,-5.217 31.242,-5.217 62.484,-5.217Z" style="fill:#ff95ca;fill-rule:nonzero;"/><path d="M1718.84,5904.472l1492.82,0c31.242,0 49.987,0 62.484,5.217c18.015,6.557 32.207,20.748 38.763,38.763c5.217,12.497 5.217,31.242 5.217,62.484l0,251.373c0,31.242 0,49.987 -5.217,62.484c-6.557,18.015 -20.748,32.206 -38.763,38.763c-12.497,5.217 -31.242,5.217 -62.484,5.217l-1492.82,0c-31.242,0 -49.987,0 -62.483,-5.217c-18.015,-6.557 -32.207,-20.748 -38.763,-38.763c-5.218,-12.497 -5.218,-31.242 -5.218,-62.484l0,-251.373c0,-31.242 0,-49.987 5.218,-62.484c6.557,-18.015 20.748,-32.206 38.763,-38.763c12.497,-5.217 31.242,-5.217 62.483,-5.217Z" style="fill:#ed220d;fill-rule:nonzero;"/><path d="M222.462,3449.192l955.912,0c31.242,0 49.987,0 62.484,5.217c18.015,6.557 32.206,20.748 38.763,38.763c5.217,12.497 5.217,31.242 5.217,62.484l0,764.651c0,31.242 0,49.987 -5.217,62.484c-6.557,18.015 -20.748,32.206 -38.763,38.763c-12.497,5.217 -31.242,5.217 -62.484,5.217l-955.912,0c-31.242,0 -49.987,0 -62.484,-5.217c-18.015,-6.557 -32.206,-20.748 -38.763,-38.763c-5.217,-12.497 -5.217,-31.242 -5.217,-62.484l0,-764.651c0,-31.242 0,-49.987 5.217,-62.484c6.557,-18.015 20.748,-32.206 38.763,-38.763c12.497,-5.217 31.242,-5.217 62.484,-5.217Z" style="fill:#fff056;fill-rule:nonzero;"/><path d="M3821.626,2781.554l955.912,0c31.242,0 49.988,0 62.483,5.217c18.017,6.558 32.208,20.75 38.763,38.767c5.221,12.496 5.221,31.242 5.221,62.483l0,1818.535c0,31.242 0,49.987 -5.221,62.484c-6.554,18.015 -20.746,32.206 -38.763,38.763c-12.496,5.217 -31.242,5.217 -62.483,5.217l-955.912,0c-31.242,0 -49.987,0 -62.484,-5.217c-18.015,-6.557 -32.206,-20.748 -38.763,-38.763c-5.217,-12.497 -5.217,-31.242 -5.217,-62.484l0,-1818.535c0,-31.242 0,-49.988 5.217,-62.483c6.557,-18.017 20.748,-32.208 38.763,-38.767c12.497,-5.217 31.242,-5.217 62.484,-5.217Z" style="fill:#fff056;fill-rule:nonzero;"/><g transform="matrix(1,0,0,1,1491,1096)"><text x="479.296px" y="972.471px" style="font-family:'Futura-Bold', 'Futura', sans-serif;font-weight:700;font-size:123.459px;">Do Bac<tspan x="940.293px 1022.64px 1110.914px 1168.94px 1255.361px " y="972.471px 972.471px 972.471px 972.471px 972.471px ">kgrou</tspan>nd</text><text x="693.488px" y="1135.756px" style="font-family:'Futura-Bold', 'Futura', sans-serif;font-weight:700;font-size:123.459px;">R<tspan x="779.662px 859.54px " y="1135.756px 1135.756px ">es</tspan>ear<tspan x="1146.954px 1210.535px " y="1135.756px 1135.756px ">ch</tspan></text></g><g transform="matrix(123.459361,0,0,123.459361,2978.47551,826.712936)"></g><text x="1964.874px" y="826.713px" style="font-family:'Futura-Bold', 'Futura', sans-serif;font-weight:700;font-size:123.459px;">Ask a Ques<tspan x="2724.643px 2772.422px 2810.077px " y="826.713px 826.713px 826.713px ">tio</tspan>n</text><g transform="matrix(123.459361,0,0,123.459361,3158.471021,1472.471269)"></g><text x="1791.529px" y="1472.471px" style="font-family:'Futura-Bold', 'Futura', sans-serif;font-weight:700;font-size:123.459px;">Pr<tspan x="1933.26px 2019.682px " y="1472.471px 1472.471px ">oc</tspan>edur<tspan x="2387.467px 2467.346px 2509.322px 2646.362px 2732.783px 2790.315px 2876.49px " y="1472.471px 1472.471px 1472.471px 1472.471px 1472.471px 1472.471px 1472.471px ">e Worki</tspan>ng?</text><g transform="matrix(129.166667,0,0,129.166667,2274.37,4176.13)"></g><text x="2065.249px" y="4176.13px" style="font-family:'Futura-Bold', 'Futura', sans-serif;font-weight:700;font-size:129.167px;">N<tspan x="2183.953px " y="4176.13px ">o</tspan></text><g transform="matrix(129.166667,0,0,129.166667,2876.787083,4176.13)"></g><text x="2644.545px" y="4176.13px" style="font-family:'Futura-Bold', 'Futura', sans-serif;font-weight:700;font-size:129.167px;">Y<tspan x="2727.47px 2811.041px " y="4176.13px 4176.13px ">es</tspan></text><g transform="matrix(1,0,0,1,1400.158133,3536.26955)"><text x="442.574px" y="1223.925px" style="font-family:'Futura-Bold', 'Futura', sans-serif;font-weight:700;font-size:129.167px;">A<tspan x="547.587px 633.353px 723.899px 764.587px 850.353px 916.099px " y="1223.925px 1223.925px 1223.925px 1223.925px 1223.925px 1223.925px ">nalyse</tspan> Dat<tspan x="1285.128px 1375.674px " y="1223.925px 1223.925px ">a </tspan>and</text><g transform="matrix(129.166667,0,0,129.166667,1679.257283,1394.758367)"></g><text x="450.107px" y="1394.758px" style="font-family:'Futura-Bold', 'Futura', sans-serif;font-weight:700;font-size:129.167px;">Dr<tspan x="612.599px 704.436px 836.832px " y="1394.758px 1394.758px 1394.758px ">aw </tspan>Conclusions</text></g><g transform="matrix(1,0,0,1,710.579417,4044.730133)"><text x="399.768px" y="1384.492px" style="font-family:'Futura-Bold', 'Futura', sans-serif;font-weight:700;font-size:129.167px;">R<tspan x="489.927px 573.498px " y="1384.492px 1384.492px ">es</tspan>ult<tspan x="813.877px 879.623px 923.539px 1028.552px 1067.948px " y="1384.492px 1384.492px 1384.492px 1384.492px 1384.492px ">s Ali</tspan>gn</text><g transform="matrix(129.166667,0,0,129.166667,1402.531,1555.324867)"></g><text x="280.719px" y="1555.325px" style="font-family:'Futura-Bold', 'Futura', sans-serif;font-weight:700;font-size:129.167px;">wit<tspan x="503.66px 589.427px " y="1555.325px 1555.325px ">h </tspan>Hypo<tspan x="1011.156px 1062.306px 1148.073px " y="1555.325px 1555.325px 1555.325px ">the</tspan>sis</text></g><g transform="matrix(1,0,0,1,1993.502833,4055.370133)"><text x="674.726px" y="1377.477px" style="font-family:'Futura-Bold', 'Futura', sans-serif;font-weight:700;font-size:116.667px;">R<tspan x="756.16px 831.643px " y="1377.477px 1377.477px ">es</tspan>ult<tspan x="1048.76px 1108.143px 1147.81px 1225.51px 1307.293px 1363.876px 1409.026px 1444.61px " y="1377.477px 1377.477px 1377.477px 1377.477px 1377.477px 1377.477px 1377.477px 1377.477px ">s Partia</tspan>ll<tspan x="1598.726px 1678.993px " y="1377.477px 1377.477px ">y </tspan>or N<tspan x="2001.46px 2083.476px " y="1377.477px 1377.477px ">ot</tspan></text><g transform="matrix(116.666667,0,0,116.666667,2089.82175,1531.6432)"></g><text x="712.105px" y="1531.643px" style="font-family:'Futura-Bold', 'Futura', sans-serif;font-weight:700;font-size:116.667px;">A<tspan x="806.955px 842.538px " y="1531.643px 1531.643px ">li</tspan>gn wit<tspan x="1277.938px 1355.405px " y="1531.643px 1531.643px ">h </tspan>Hypo<tspan x="1736.322px 1782.522px 1859.988px " y="1531.643px 1531.643px 1531.643px ">the</tspan>sis</text></g><g transform="matrix(129.166667,0,0,129.166667,3192.771667,6183.665)"></g><text x="1737.709px" y="6183.665px" style="font-family:'Futura-Bold', 'Futura', sans-serif;font-weight:700;font-size:129.167px;">Communicat<tspan x="2585.43px 2669.001px 2712.917px 2803.076px 2886.647px " y="6183.665px 6183.665px 6183.665px 6183.665px 6183.665px ">e Res</tspan>ult<tspan x="3127.026px " y="6183.665px ">s</tspan></text><g transform="matrix(1,0,0,1,190.213053,2883.51125)"><text x="61.949px" y="1017.791px" style="font-family:'Futura-Bold', 'Futura', sans-serif;font-weight:700;font-size:129.167px;">T<tspan x="128.211px 188.919px 279.336px " y="1017.791px 1017.791px 1017.791px ">rou</tspan>bleshoo<tspan x="911.994px " y="1017.791px ">t</tspan></text><g transform="matrix(129.166667,0,0,129.166667,866.075613,1188.624167)"></g><text x="156.046px" y="1188.624px" style="font-family:'Futura-Bold', 'Futura', sans-serif;font-weight:700;font-size:129.167px;">pr<tspan x="307.301px 397.717px " y="1188.624px 1188.624px ">oc</tspan>edur<tspan x="782.505px " y="1188.624px ">e</tspan></text></g><g transform="matrix(1,0,0,1,2903.624,2319.1904)"><text x="1277.324px" y="861.058px" style="font-family:'Futura-Bold', 'Futura', sans-serif;font-weight:700;font-size:129.167px;">Use</text><text x="941.361px" y="1031.891px" style="font-family:'Futura-Bold', 'Futura', sans-serif;font-weight:700;font-size:129.167px;">e<tspan x="1021.445px 1117.286px " y="1031.891px 1031.891px ">xp</tspan>er<tspan x="1351.595px 1390.991px " y="1031.891px 1031.891px ">im</tspan>ent<tspan x="1737.932px 1828.478px " y="1031.891px 1031.891px ">al</tspan></text><text x="1007.043px" y="1202.725px" style="font-family:'Futura-Bold', 'Futura', sans-serif;font-weight:700;font-size:129.167px;">dat<tspan x="1237.605px 1328.151px 1372.068px 1421.409px 1511.826px " y="1202.725px 1202.725px 1202.725px 1202.725px 1202.725px ">a to </tspan>ask</text><text x="1255.301px" y="1373.558px" style="font-family:'Futura-Bold', 'Futura', sans-serif;font-weight:700;font-size:129.167px;">ne<tspan x="1421.538px " y="1373.558px ">w</tspan></text><text x="1084.736px" y="1544.391px" style="font-family:'Futura-Bold', 'Futura', sans-serif;font-weight:700;font-size:129.167px;">q<tspan x="1177.478px 1263.891px 1347.461px 1415.016px 1465.003px 1504.399px " y="1544.391px 1544.391px 1544.391px 1544.391px 1544.391px 1544.391px ">uestio</tspan>n,</text><text x="1068.139px" y="1715.225px" style="font-family:'Futura-Bold', 'Futura', sans-serif;font-weight:700;font-size:129.167px;">f<tspan x="1119.805px 1210.222px 1270.414px 1398.547px " y="1715.225px 1715.225px 1715.225px 1715.225px ">orm </tspan>ne<tspan x="1608.701px " y="1715.225px ">w</tspan></text><text x="1010.272px" y="1886.058px" style="font-family:'Futura-Bold', 'Futura', sans-serif;font-weight:700;font-size:129.167px;">h<tspan x="1093.455px 1182.322px 1272.868px 1363.672px 1414.822px 1500.589px " y="1886.058px 1886.058px 1886.058px 1886.058px 1886.058px 1886.058px ">ypothe</tspan>sis,</text><text x="1006.978px" y="2056.891px" style="font-family:'Futura-Bold', 'Futura', sans-serif;font-weight:700;font-size:129.167px;">e<tspan x="1087.061px 1182.903px " y="2056.891px 2056.891px ">xp</tspan>er<tspan x="1417.211px 1456.607px " y="2056.891px 2056.891px ">im</tspan>ent</text><g transform="matrix(129.166667,0,0,129.166667,1628.334333,2227.7246)"></g><text x="1180.901px" y="2227.725px" style="font-family:'Futura-Bold', 'Futura', sans-serif;font-weight:700;font-size:129.167px;">ag<tspan x="1362.897px 1453.443px " y="2227.725px 2227.725px ">ai</tspan>n!</text></g><path d="M2488.04,1171.708l52.491,0l-75.28,62.992l-75.28,-62.992l52.491,0l0,-107.512l-52.491,0l75.28,-62.992l75.28,62.992l-52.491,0l0,107.512Z" style="fill-rule:nonzero;"/><path d="M2442.987,1838.283l-75.911,0l98.174,65.446l98.174,-65.446l-75.91,0l0,-168.054l-44.527,0l0,168.054Z" style="fill-rule:nonzero;"/><path d="M2442.987,2508.275l-75.911,0l98.174,65.45l98.174,-65.45l-75.91,0l0,-168.05l-44.527,0l0,168.05Z" style="fill-rule:nonzero;"/><path d="M2442.987,3178.272l-75.911,0l98.174,65.446l98.174,-65.446l-75.91,0l0,-168.051l-44.527,0l0,168.051Z" style="fill-rule:nonzero;"/><path d="M2147.559,3848.59l-75.911,0l98.174,65.446l98.174,-65.446l-75.91,0l0,-168.051l-44.527,0l0,168.051Z" style="fill-rule:nonzero;"/><path d="M2738.415,3848.59l-75.911,0l98.175,65.446l98.174,-65.446l-75.911,0l0,-168.051l-44.527,0l0,168.051Z" style="fill-rule:nonzero;"/><path d="M2738.415,4530.731l-75.911,0l98.175,65.446l98.174,-65.446l-75.911,0l0,-168.051l-44.527,0l0,168.051Z" style="fill-rule:nonzero;"/><path d="M3002.842,5183.416l-75.911,0l98.174,65.447l98.175,-65.447l-75.911,0l0,-168.05l-44.527,0l0,168.05Z" style="fill-rule:nonzero;"/><path d="M1927.432,5182.125l-75.91,0l98.174,65.446l98.174,-65.446l-75.911,0l0,-168.051l-44.527,0l0,168.051Z" style="fill-rule:nonzero;"/><path d="M1927.432,5853.412l-75.91,0l98.174,65.446l98.174,-65.446l-75.911,0l0,-168.051l-44.527,0l0,168.051Z" style="fill-rule:nonzero;"/><path d="M3002.842,5853.412l-75.911,0l98.174,65.446l98.175,-65.446l-75.911,0l0,-168.051l-44.527,0l0,168.051Z" style="fill-rule:nonzero;"/><path d="M1337.117,4107.278l0,-75.91l-65.446,98.174l65.446,98.174l0,-75.911l579.555,0l0,-44.527l-579.555,0Z" style="fill-rule:nonzero;"/><path d="M1543.106,2734.596l0,-75.913l65.446,98.175l-65.446,98.175l0,-75.913l-838.114,0l0,-44.525l838.114,0Z" style="fill-rule:nonzero;"/><path d="M722.931,3458.991l0,-722.95" style="fill:none;fill-rule:nonzero;stroke:#000;stroke-width:41.67px;"/><path d="M3463.52,2127.125l956.817,0" style="fill:none;fill-rule:nonzero;stroke:#000;stroke-width:41.67px;stroke-dasharray:83.333,83.333;"/><path d="M3484.353,2047.125l-160,80l160,80l0,-160Z" style="fill-rule:nonzero;"/><path d="M4396.188,2108.146l0,697.659" style="fill:none;fill-rule:nonzero;stroke:#000;stroke-width:41.67px;stroke-dasharray:83.333,83.333;"/><path d="M4511.463,4942.336l0,516.142" style="fill:none;fill-rule:nonzero;stroke:#000;stroke-width:41.67px;stroke-dasharray:83.333,83.333;"/><path d="M4591.463,4963.169l-80,-160l-80,160l160,0Z" style="fill-rule:nonzero;"/><path d="M4276.742,5441.616l263.89,0" style="fill:none;fill-rule:nonzero;stroke:#000;stroke-width:41.67px;stroke-dasharray:83.333,83.333;"/><text x="1712.632px" y="2800.471px" style="font-family:'Futura-Bold', 'Futura', sans-serif;font-weight:700;font-size:123.459px;">Cons<tspan x="2027.948px 2073.998px 2131.53px 2214.124px " y="2800.471px 2800.471px 2800.471px 2800.471px ">truc</tspan>t a Hypo<tspan x="2852.286px 2901.176px 2983.153px " y="2800.471px 2800.471px 2800.471px ">the</tspan>sis</text><text x="1674.644px" y="3482.471px" style="font-family:'Futura-Bold', 'Futura', sans-serif;font-weight:700;font-size:123.459px;">T<tspan x="1736.374px 1816.252px 1880.821px 1926.871px " y="3482.471px 3482.471px 3482.471px 3482.471px ">est </tspan>wit<tspan x="2181.938px 2263.915px " y="3482.471px 3482.471px ">h </tspan>an Exper<tspan x="2902.324px 2939.979px " y="3482.471px 3482.471px ">im</tspan>ent</text></svg>